# Blender 4.2.9 LTS
# www.blender.org
mtllib box.mtl
o Cube
v 1.000000 1.000000 -1.000000
v 1.000000 -1.000000 -1.000000
v 1.000000 1.000000 1.000000
v 1.000000 -1.000000 1.000000
v -1.000000 1.000000 -1.000000
v -1.000000 -1.000000 -1.000000
v -1.000000 1.000000 1.000000
v -1.000000 -1.000000 1.000000
vn -0.0000 1.0000 -0.0000
vn -0.0000 -0.0000 1.0000
vn -1.0000 -0.0000 -0.0000
vn -0.0000 -1.0000 -0.0000
vn 1.0000 -0.0000 -0.0000
vn -0.0000 -0.0000 -1.0000
vt 1.001028 1.000377
vt -0.001029 -0.001679
vt 1.001028 -0.001679
vt -0.001029 1.000378
vt -0.001029 -0.001679
vt 1.001028 -0.001679
vt -0.001029 1.000378
vt -0.001029 -0.001679
vt 1.001028 -0.001680
vt -0.001029 1.000377
vt 1.001028 -0.001679
vt -0.001029 -0.001679
vt -0.001028 1.000377
vt 1.001028 1.000377
s 0
usemtl Material
f 5/1/1 3/2/1 1/3/1
f 3/3/2 8/4/2 4/5/2
f 7/6/3 6/7/3 8/8/3
f 2/9/4 8/10/4 6/2/4
f 1/11/5 4/4/5 2/12/5
f 5/13/6 2/3/6 6/14/6
f 5/1/1 7/7/1 3/2/1
f 3/3/2 7/14/2 8/4/2
f 7/6/3 5/14/3 6/7/3
f 2/9/4 4/1/4 8/10/4
f 1/11/5 3/14/5 4/4/5
f 5/13/6 1/8/6 2/3/6
